<svg viewBox="0 0 127.82 114.31" xmlns="http://www.w3.org/2000/svg"><g transform="translate(-12.97 -18.36)"><path d="m113.5 18.61a.92.92 0 0 0 -.73.88v2.21a16 16 0 0 0 -4.62 1.91l-1.56-1.61a.91.91 0 0 0 -1.14-.1 21 21 0 0 0 -4.36 4.36.91.91 0 0 0 .1 1.14l1.56 1.6a16 16 0 0 0 -1.91 4.62h-2.21a.92.92 0 0 0 -.88.73 18.87 18.87 0 0 0 0 6.17.92.92 0 0 0 .88.73h2.21a16 16 0 0 0 1.91 4.62l-1.56 1.56a.91.91 0 0 0 -.1 1.14 21.07 21.07 0 0 0 4.36 4.43.92.92 0 0 0 1.14-.1l1.56-1.56a16 16 0 0 0 4.62 1.91v2.15a.92.92 0 0 0 .73.88 18.94 18.94 0 0 0 6.17 0 .92.92 0 0 0 .73-.88v-2.2a16 16 0 0 0 4.6-1.91l1.56 1.56a.92.92 0 0 0 1.14.1 21.06 21.06 0 0 0 4.36-4.36.91.91 0 0 0 -.1-1.14l-1.56-1.56a16 16 0 0 0 1.91-4.62h2.21a.92.92 0 0 0 .88-.73 18.94 18.94 0 0 0 0-6.17.92.92 0 0 0 -.88-.73h-2.21a16 16 0 0 0 -1.88-4.64l1.57-1.55a.91.91 0 0 0 .1-1.14 21 21 0 0 0 -4.36-4.36.91.91 0 0 0 -1.14.1l-1.6 1.56a16 16 0 0 0 -4.62-1.91v-2.21a.92.92 0 0 0 -.73-.88 18.87 18.87 0 0 0 -6.17 0zm3.09 9.29a9.54 9.54 0 1 1 -9.59 9.55 9.55 9.55 0 0 1 9.59-9.55z" fill="#727272"/><g fill-rule="evenodd"><path d="m18.65 86.71c.22 2 .41 3.65.6 5.25 7.57 1 7.47 1 8.12 2.5 2.44 5.53-4.17 4.91-5.34 8 .64 3.48 2.28 5.58 6.08 3.66 4-2 4.68 1.35 6.27 3.52l-3.92 5.28c18.54-2.14 49.54-10.86 82.08-42.21-.21-.55-.48-1.19-.81-2-2.61-1.19-6 2.49-8.14-1.57-2.59-4.87 3.42-5 4.16-8.23l-2.83-4.2c-7.26 2.56-7.21 2.49-8.3 1.61-4.41-3.61 1.35-6.06 1-9.52-1.16-.9-2.48-1.94-4-3.13-2 1.8-3.9 3.49-5.65 5-3.61-.95-5.28-2.77-3.7-6.37a7.09 7.09 0 0 0 .15-1.09c.58-2.28-.91-2.83-2.64-3.51-2-.77-2.92-.12-3.69 1.63s-1.68 3.15-2.5 4.66l-4.87-.99c-.46-2.6-.89-5-1.34-7.52h-5.62a31.2 31.2 0 0 1 -.93 5.52 5.3 5.3 0 0 1 -2.44 2.47c-3.3 1.83-3.76-1.2-4.8-3.06s-1.46-3.72-4.52-2.65c-2.85 1-2.75 2.4-2 4.66a26.14 26.14 0 0 1 .64 4.36l-4.43 2.39-5.9-5.49-4.38 3.48 3.75 7-3.35 3.77c-7.73-3.27-7.73-3.27-10.32 1.48l5.49 5.22c-.76 7.62-6.67 3.09-9.86 4.67-.61 2.43-2.52 5.23 1.57 6.18 3.94.92 5.17 3.11 3.69 7.13zm47.63-10a8.28 8.28 0 0 1 8.57 8.12 8.43 8.43 0 0 1 -8.24 8.51 8.63 8.63 0 0 1 -8.61-8.17 8.37 8.37 0 0 1 8.28-8.42z" fill="#e41e26"/><path d="m43 122.41a21.24 21.24 0 0 0 -1.15 3.79l4.05 2.11c3.53-.9 3.16-6.89 8.38-4.6 4.39 1.92.75 5.57 2.81 8.18l4.69.78c2.78-6.77 2.81-6.58 4.49-6.91 5.83-1.14 3.67 4.93 6.26 6.77l5.19-1v-7.3l5-1.6 4.43 5.43c5.1-2.35 5.24-2.4 3.49-6.84-.76-1.93-.48-3 1.08-4.31s2.85-1.51 4.47-.19a40.09 40.09 0 0 0 3.74 2.41l3.77-4c-4.38-6.56-4.38-6.56-1.16-10.2 6.94 1.94 6.94 1.94 8.63-3.52-6-4.83-6-4.83-4.23-8.92l6.79-1c.21-2 .37-3.67.55-5.45-1.4-.45-3-.68-4.34-1.11-16.94 19.16-40.03 37.2-66.94 37.48z" fill="#727272"/><path d="m110 84.92s15.53-16.36 30.83-45.29c0 0-20 53.87-54.41 78l11.44-15.89z" fill="#727272"/><path d="m30.45 114.94a79.37 79.37 0 0 1 -17.45.26s31.85-2.45 53.74-16.2l-22.74 11.81z" fill="#e41e26"/></g></g></svg>